{"title":"Hindi song Tere Liye 1280x720.avi","uid":6962326,"size":200937132,"categoryP":"video","categoryS":"music_videos","magnet":"?xt=urn:btih:a6ba5bbbfd5c902f4534c707c0cfc426cbce0001&amp;dn=Hindi+song+Tere+Liye+1280x720.avi&amp;tr=udp%3A%2F%2Ftracker.openbittorrent.com%3A80&amp;tr=udp%3A%2F%2Fopen.demonii.com%3A1337&amp;tr=udp%3A%2F%2Ftracker.coppersurfer.tk%3A6969&amp;tr=udp%3A%2F%2Fexodus.desync.com%3A6969","seeders":0,"leechers":1,"uploader":"9xyz","files":1,"time":1326759812,"description":"SONGS\\Tere Liye.AVI\nFormat                                   : AVI\nFormat/Info                              : Audio Video Interleave\nFile size                                : 192 MiB\nDuration                                 : 5mn 30s\nOverall bit rate                         : 4 857 Kbps\nWriting application                      : Lavf52.31.0\n\nVideo\nID                                       : 0\nFormat                                   : MPEG-4 Visual\nFormat profile                           : Simple@L3\nFormat settings, Matrix                  : Default (H.263)\nCodec ID                                 : XVID\nCodec ID/Hint                            : XviD\nDuration                                 : 5mn 30s\nBit rate                                 : 4 716 Kbps\nWidth                                    : 1 280 pixels\nHeight                                   : 720 pixels\nDisplay aspect ratio                     : 16:9\nFrame rate                               : 29.970 fps\nColor space                              : YUV\nChroma subsampling                       : 4:2:0\nBit depth                                : 8 bits\nScan type                                : Progressive\nCompression mode                         : Lossy\nBits/(Pixel*Frame)                       : 0.171\nStream size                              : 186 MiB (97%)\nWriting library                          : XviD 1.2.1 (UTC 2008-12-04)\n\nAudio\nID                                       : 1\nFormat                                   : MPEG Audio\nFormat version                           : Version 1\nFormat profile                           : Layer 3\nMode                                     : Joint stereo\nMode extension                           : MS Stereo\nCodec ID                                 : 55\nCodec ID/Hint                            : MP3\nDuration                                 : 5mn 30s\nBit rate mode                            : Constant\nBit rate                                 : 128 Kbps\nChannel(s)                               : 2 channels\nSampling rate                            : 44.1 KHz\nCompression mode                         : Lossy\nStream size                              : 5.05 MiB (3%)\nAlignment                                : Aligned on interleaves\nInterleave, duration                     : 26 ms (0.78 video frame)\nWriting library                          : LAME3.98","torrent":{"xt":"urn:btih:a6ba5bbbfd5c902f4534c707c0cfc426cbce0001","amp;dn":"Hindi+song+Tere+Liye+1280x720.avi","amp;tr":["udp%3A%2F%2Ftracker.openbittorrent.com%3A80","udp%3A%2F%2Fopen.demonii.com%3A1337","udp%3A%2F%2Ftracker.coppersurfer.tk%3A6969","udp%3A%2F%2Fexodus.desync.com%3A6969"],"infoHash":"a6ba5bbbfd5c902f4534c707c0cfc426cbce0001","infoHashBuffer":{"type":"Buffer","data":[166,186,91,187,253,92,144,47,69,52,199,7,192,207,196,38,203,206,0,1]},"announce":[],"urlList":[]}}